<svg id="Layer_1" data-name="Layer 1" xmlns="http://www.w3.org/2000/svg" viewBox="0 0 1280 1024"><defs><style>.cls-1{opacity:0.04;}.cls-2,.cls-3{fill:none;}.cls-2,.cls-4{stroke:#000;}.cls-2,.cls-3,.cls-4{stroke-linecap:round;stroke-linejoin:round;stroke-width:3px;}.cls-3{stroke:#f5f5f5;}</style></defs><title>Complex algorithm</title><circle class="cls-1" cx="594.52" cy="451.28" r="297.01"/><path d="M580.51,155l.13-.18c3.27-4.94,8.67-4.58,13.89-4.83,6.51-.31,13-1,19.18-3.21,10-3.66,20.09-9,31.1-7.66,8.39,1,13.25,6.76,13.05,15.21,0,.4,0,.81-.06,1.22s4,3.11,4.42,3.51a25.16,25.16,0,0,1,5,6.25c5.8,11,.46,24.1-5.55,33.7-.3.48-3.51,5.11-3.45,5.17-2.39-2.33-3.57-3-7-8.85a9.32,9.32,0,0,0,3.42-7.94c-.45-2.88-2.06-5.28-8.93-3.32-1.18-1.32-2.6-5.07-3.7-8.19a19.85,19.85,0,0,1-1-5,82.3,82.3,0,0,1-19.52,7.27c-14.36,3.34-37.49,5.53-42.22-13.14A13,13,0,0,1,580.51,155Z"/><path class="cls-2" d="M615.7,233.75V247.4l14.22,12.12,15.33-12.12V225.81a34.35,34.35,0,0,0,11.72-15,33.69,33.69,0,0,0,2.39-11.66"/><polyline class="cls-2" points="615.7 247.4 607.88 272.07 629.92 259.52 652.23 272.07 645.25 247.4"/><path class="cls-2" d="M615.7,243.77c-8.25,4.11-31.72,14.84-41.72,19.62-3.68,5.46-28.31,35.66-40,50.48q5.34,6.61,11.48,13.53c4.44,5,8.83,9.62,13.12,13.94q6.47-8.08,12.92-16.19-3.75,72.54-7.48,145.1h91.08"/><polyline class="cls-2" points="645.25 241.66 689.36 261.4 721.14 323.4 718.11 325.7 718.11 325.71 695.84 342.63 693.21 344.63 677.1 317.91 682.63 416.09 682.63 416.1 682.63 416.11"/><path class="cls-2" d="M695.84,342.63l11.26,19.18-24.47,54.28h0l-12.64,28L654.93,450a3.17,3.17,0,0,0-2,2.94h0a3.15,3.15,0,0,0,3.16,3.15h6.79l-7.46,15.7a3.61,3.61,0,0,0,1.73,4.83l1,.48a10.77,10.77,0,0,0,13.9-4.4l59.27-103.47A11.62,11.62,0,0,0,732,359l-13.89-33.33h0"/><path class="cls-2" d="M536.76,317.3,526.7,327.36,494.61,270.7a7.14,7.14,0,0,0-5-3.52l-35.79-6.68L451,266.16l33.16,14.22,29.26,68.09A16.84,16.84,0,0,0,541,353.56l14.75-15.14"/><polyline class="cls-2" points="570.14 470.25 551.71 605.52 551.71 748.29 579.09 748.29 590.52 610.71 616.76 504.87 626.5 748.29 652.93 748.29 678.69 461.19"/><polyline class="cls-2" points="647.35 748.29 647.35 765.93 658.23 781.51 658.23 792.75 618.73 792.75 618.73 781.51 631.92 766.66 631.92 748.29"/><line class="cls-2" x1="618.73" y1="781.52" x2="658.23" y2="781.52"/><polyline class="cls-2" points="572.16 748.29 572.16 765.93 583.04 781.51 583.04 792.75 543.54 792.75 543.54 781.51 555.74 766.66 555.74 748.29"/><line class="cls-2" x1="543.54" y1="781.52" x2="583.04" y2="781.52"/><path class="cls-2" d="M599.89,175.18c-3.67,13.53-4.78,29.23.41,42.54,2.29,5.89,6.32,11.38,11.89,14.54,6.28,3.56,14.29,2.61,20.85.29"/><path d="M939.31,718.82v73H682c2.22-2.45,22-30.49,47.42-30.49,25.73,0,39.13,16.05,60.67-.86,7.45-5.85,18.9-14,28.13-14,8.91,0,17.27,4,25.77,6.63a39.28,39.28,0,0,0,26.37-.56c7.18-2.64,13.92-6.72,20.64-10.75C906.41,732.51,922.29,722.79,939.31,718.82Z"/><path class="cls-2" d="M847,734.9a40.58,40.58,0,1,0-7.92-30.14"/><polyline class="cls-2" points="765.69 731.82 739.53 727.78 720.28 724.8 707.66 772.65 704.73 783.74"/><polyline class="cls-2" points="819.47 704.76 830.83 664.85 772.92 625.94 718.02 669 739.53 727.78 765.69 731.82"/><rect class="cls-2" x="765.69" y="704.75" width="81.32" height="70.61"/><polygon points="939.31 551.39 670.6 551.39 677.18 485.81 939.31 485.81 939.31 551.39"/><circle cx="438.61" cy="439.81" r="16.41"/><circle cx="438.61" cy="260.18" r="16.41"/><rect x="444.54" y="518.96" width="32.14" height="32.14"/><rect x="329.97" y="357.26" width="125.04" height="21.88"/><polygon points="350.66 454.52 368.12 424.67 385.33 454.52 350.66 454.52"/><polyline class="cls-2" points="438.61 260.18 377.76 260.18 377.76 321.57 475.27 321.57 475.27 478.31 404.7 478.31 404.7 402.72 330.97 402.72 330.97 535.03 460.61 535.03"/><line class="cls-2" x1="436.94" y1="229.33" x2="436.94" y2="207.08"/><line class="cls-2" x1="453.04" y1="236.38" x2="471.11" y2="218.31"/><polyline class="cls-2" points="678.69 218.31 847.01 218.31 847.01 259.52 718.69 259.52"/><polyline class="cls-2" points="723.51 416.11 847.01 416.11 847.01 259.52"/><line class="cls-2" x1="818.01" y1="231.98" x2="830.79" y2="244.76"/><line class="cls-2" x1="830.79" y1="231.98" x2="818.01" y2="244.76"/><circle cx="794.23" cy="302.76" r="6.59"/><circle cx="760.98" cy="302.76" r="6.59"/><circle cx="727.73" cy="302.76" r="6.59"/><circle cx="794.23" cy="335.48" r="6.59"/><circle cx="760.98" cy="335.48" r="6.59"/><circle cx="727.73" cy="335.48" r="6.59"/><circle cx="794.23" cy="368.2" r="6.59"/><circle cx="760.98" cy="368.2" r="6.59"/><path class="cls-2" d="M822.5,299.35c16.2,0,16.2,20,32.4,20s16.21-20,32.41-20,16.2,20,32.4,20,16.21-20,32.41-20,16.21,20,32.41,20"/><path class="cls-2" d="M822.5,334.48c16.2,0,16.2,20,32.4,20s16.21-20,32.41-20,16.2,20,32.4,20,16.21-20,32.41-20,16.21,20,32.41,20"/><line class="cls-2" x1="295.47" y1="792.75" x2="979.64" y2="792.75"/><rect class="cls-2" x="334.69" y="719.78" width="130.69" height="72.97"/><path class="cls-2" d="M425.16,707.36c1.94-2.38,4.06-5.14,6.23-8.26a130.35,130.35,0,0,0,22.89-62.46c-4.89,4.13-9.08,10.22-14.65,17-5.39,6.6-15.32,23.88-18.36,29.36,1.25-4.69,5.09-21.89,5.74-27.88,1.24-11.6,2.12-21.47.82-29.22a110.34,110.34,0,0,0-22.29,63.59,203,203,0,0,0-24.66-63,256.12,256.12,0,0,0,.3,32.1,253.41,253.41,0,0,0,4.76,33.87,131.35,131.35,0,0,0-36.85-47.84,182.2,182.2,0,0,0,21.69,56.16,83.94,83.94,0,0,0-38.93-27.33,123,123,0,0,0,31.59,46.29"/><path class="cls-2" d="M431.39,699.1c4.53-3.12,16-10.43,22.44-13.47a117.5,117.5,0,0,1,24-8.24,168.45,168.45,0,0,1-42.77,42.39"/><circle cx="349.02" cy="744.8" r="5.49"/><circle cx="374.52" cy="744.8" r="5.49"/><circle cx="400.03" cy="744.8" r="5.49"/><circle cx="425.54" cy="744.8" r="5.49"/><circle cx="451.05" cy="744.8" r="5.49"/><line class="cls-2" x1="334.69" y1="769.81" x2="465.38" y2="769.81"/><rect x="334.69" y="769.81" width="130.69" height="22.95"/><rect x="543.54" y="781.52" width="39.5" height="11.24"/><rect x="618.73" y="781.52" width="39.5" height="11.24"/><polyline class="cls-3" points="704.47 510.6 719.3 526.6 734.13 510.6 748.97 526.6 763.8 510.6 778.63 526.6 793.47 510.6 808.3 526.6 823.14 510.6 837.97 526.6 852.82 510.6 867.66 526.6"/><line class="cls-3" x1="882" y1="526.51" x2="901.83" y2="526.51"/><path class="cls-4" d="M616,233.84a28.23,28.23,0,0,0,9.27.57,27.84,27.84,0,0,0,8.18-2.14,20.9,20.9,0,0,1-17.74,12.17Z"/></svg>