<?xml version="1.0" encoding="utf-8"?>
<!-- Generator: Adobe Illustrator 25.0.1, SVG Export Plug-In . SVG Version: 6.00 Build 0)  -->
<svg version="1.1" id="Layer_1" xmlns="http://www.w3.org/2000/svg" xmlns:xlink="http://www.w3.org/1999/xlink" x="0px" y="0px"
	 viewBox="0 0 1280 1024" style="enable-background:new 0 0 1280 1024;" xml:space="preserve">
<style type="text/css">
	.st0{opacity:4.000000e-02;enable-background:new    ;}
	.st1{fill:none;stroke:#000000;stroke-width:3;stroke-linecap:round;stroke-linejoin:round;}
	.st2{stroke:#000000;stroke-width:3;stroke-linecap:round;stroke-linejoin:round;}
</style>
<circle class="st0" cx="630.2" cy="468.1" r="297"/>
<path class="st1" d="M626.9,276.3c4,5.3,25.8,29.4,29.2,35.1c3.2,5.5,5.6,11.5,7.2,17.7c0.3,1.2,0.6,2.4,0.8,3.5
	c1.1,5.1,2.3,12.3-2,16.3c-8.3,7.9-36.8,9.9-36.8,9.9"/>
<line class="st1" x1="641" y1="356.8" x2="636" y2="384.1"/>
<polyline class="st1" points="653.3,353.7 698.1,336.1 742.6,280.2 757.8,293.3 711.2,360.1 645.2,408.4 "/>
<path class="st1" d="M744.8,282.1l13-34.7l2.6,2.6c1.8,1.8,2.5,4.5,1.8,7l-2.2,7.7l1.9,1.7c4.1,3.7,4.7,9.9,1.5,14.3l-7.8,10.7"/>
<path class="st1" d="M601.8,383.3c2.4-1.2,5-2.2,7.6-2.9c4.4-1.4,9.2-1.7,13.8-1c1.3,0.2,12,2.4,17.8,11.6c1.6,2.7,2.7,5.7,3.3,8.8
	c3.2,17.8-9.1,85.7-9.7,89.2l87.5,8.5c2.2,11.6-2.1,23.5-11.2,31.1c-12.4,1.4-31.8,3.6-55.6,6.5c-48.2,5.9-54.6,7.5-61.7,4
	c-25.2-12.4-12.1-68.9-10.6-119.1"/>
<path class="st1" d="M722.6,500.4l17.8-2.9l11-10.4l1.5,4.8c1.3,4,0.2,8.3-2.8,11.2l-4.2,4c-1.6,1.6-2.9,3.5-3.7,5.5l0,0
	c-2,5.1-6.7,8.6-12.1,9.1l-15.6,3.3"/>
<path class="st1" d="M513.6,443.9l-40.8,109.6c-4,10.6,1.4,22.4,12,26.3c0.3,0.1,0.6,0.2,0.9,0.3c31.5,10.1,94.1,21.5,139.6-25.4
	V539"/>
<path class="st1" d="M479.2,576.6c-2.8,10.5-4.5,25.7,2,41.2c15.1,36.4,60.3,40,64.2,40.3c10.2,0.7,18.5-0.9,30.4-4.2
	c21.3-5.8,51.9-16.4,88.1-36.5c-1,66.5-3.3,133-4.3,199.4c9.2,4.9,18.4,9.9,27.6,14.8c10.8-68,19.7-107.1,28.3-161.6"/>
<polyline class="st1" points="625.3,552.8 646.1,559.8 757.8,737.5 784.1,724.2 697.9,530.1 "/>
<polyline class="st1" points="711.4,496.4 740.4,453.9 765.8,462.3 747.6,490.7 "/>
<path class="st1" d="M738.7,261c-6.4-11.7-2.1-26.3,9.6-32.7s26.3-2.1,32.7,9.6c5.9,10.8,2.8,24.2-7.3,31.3"/>
<path class="st2" d="M659.5,815.1l-1.2,24.9l54.6,26l0.5-3.8c1-8.6-2.9-17-10.1-21.7l-16.1-10.5L659.5,815.1z"/>
<path class="st2" d="M757.2,738l10,15.4l55.5-26.6l0,0c-5-7.9-14.8-11.3-23.6-8l-15.6,5.8L757.2,738z"/>
<path class="st1" d="M708.7,554.5l11.2,2.8c13.6,3.5,22,17,19,30.7l-5,23"/>
<path class="st1" d="M511.9,520.6c0.8,7.2,3.6,14.1,7.9,19.8c9.8,12.7,24.1,15,27.3,15.4"/>
<path class="st1" d="M528.3,486c-2.2,6.9-2.5,14.3-0.8,21.4c3.8,15.6,16,23.5,18.7,25.2"/>
<rect x="445.4" y="657.4" width="189.7" height="31.6"/>
<path class="st1" d="M726.9,273.5c-13.3-18.2-9.4-43.7,8.8-57c18.2-13.3,43.7-9.4,57,8.8s9.4,43.7-8.8,57c-1.1,0.8-2.3,1.6-3.5,2.3"
	/>
<path class="st1" d="M306.5,322h23.1c29.7,0,53.8,24.1,53.8,53.8l0,0v53.8l0,0h-76.9c-29.7,0-53.8-24.1-53.8-53.8c0,0,0,0,0,0l0,0
	C252.7,346.1,276.8,322,306.5,322z"/>
<line class="st1" x1="297.1" y1="361" x2="338.9" y2="361"/>
<line class="st1" x1="297.1" y1="387" x2="338.9" y2="387"/>
<path d="M406.2,401.5h-23.1c-29.7,0-53.8,24.1-53.8,53.8v53.8h76.9c29.7,0,53.8-24.1,53.8-53.8l0,0
	C460.1,425.6,436,401.5,406.2,401.5L406.2,401.5z M372.5,462.4c-3.9,0-7-3.1-7-7s3.1-7,7-7s7,3.1,7,7S376.3,462.4,372.5,462.4z
	 M394.7,462.4c-3.9,0-7-3.1-7-7s3.1-7,7-7s7,3.1,7,7S398.6,462.4,394.7,462.4z M417,462.4c-3.9,0-7-3.1-7-7s3.1-7,7-7s7,3.1,7,7
	C424,459.2,420.9,462.4,417,462.4L417,462.4z"/>
<path class="st1" d="M842.2,323.3H909c7.5,0,13.6,6.1,13.6,13.6l0,0c0,7.5-6.1,13.6-13.6,13.6h-66.7c-7.5,0-13.6-6.1-13.6-13.6l0,0
	C828.7,329.4,834.7,323.3,842.2,323.3z"/>
<path class="st1" d="M842.2,485.7H909c7.5,0,13.6,6.1,13.6,13.6v0c0,7.5-6.1,13.6-13.6,13.6h-66.7c-7.5,0-13.6-6.1-13.6-13.6v0
	C828.7,491.7,834.7,485.7,842.2,485.7z"/>
<path class="st2" d="M954.6,323.3h21.6c7.5,0,13.6,6.1,13.6,13.6l0,0c0,7.5-6.1,13.6-13.6,13.6h-21.6c-7.5,0-13.6-6.1-13.6-13.6l0,0
	C941,329.4,947.1,323.3,954.6,323.3z"/>
<path class="st2" d="M842.2,431.5h95c7.5,0,13.6,6.1,13.6,13.6l0,0c0,7.5-6.1,13.6-13.6,13.6h-95c-7.5,0-13.6-6.1-13.6-13.6l0,0
	C828.7,437.6,834.7,431.5,842.2,431.5z"/>
<path class="st1" d="M928.7,377.4h85.1c7.5,0,13.6,6.1,13.6,13.6l0,0c0,7.5-6.1,13.6-13.6,13.6h-85.1c-7.5,0-13.6-6.1-13.6-13.6l0,0
	C915.1,383.5,921.2,377.4,928.7,377.4z"/>
<path class="st2" d="M840,377.4h40c7.5,0,13.6,6.1,13.6,13.6l0,0c0,7.5-6.1,13.6-13.6,13.6h-40c-7.5,0-13.6-6.1-13.6-13.6l0,0
	C826.5,383.5,832.5,377.4,840,377.4z"/>
<polyline class="st1" points="645.2,245.6 657,245.6 663,228.6 665.1,258.9 673,241.2 678.3,245.6 688.7,245.6 695,230.6 
	699.3,257.2 706.5,243.7 "/>
<polyline class="st1" points="811.4,245.6 817.1,254.7 820.9,228 826.2,245.6 832.8,245.6 835.7,233.7 841.6,254.7 844.7,245.6 
	849.5,245.6 854.5,228 858.4,254.7 861.3,245.6 869.2,245.6 "/>
<path d="M753.5,404.6c-9.8,0-17.8,8-17.8,17.8c0,9.8,8,17.8,17.8,17.8c9.8,0,17.8-8,17.8-17.8c0,0,0,0,0,0
	C771.3,412.5,763.3,404.6,753.5,404.6L753.5,404.6z M757.2,425.3c-3.7,0-6.7-3-6.7-6.7c0-3.7,3-6.7,6.7-6.7c3.7,0,6.7,3,6.7,6.7
	C764,422.3,761,425.3,757.2,425.3C757.3,425.3,757.3,425.3,757.2,425.3z"/>
<polygon class="st2" points="860.1,600.5 874.9,615.4 860.1,630.2 830.4,600.5 860.1,570.9 874.9,585.7 "/>
<polyline class="st1" points="874.9,615.4 889.8,630.2 904.6,615.4 889.8,600.5 "/>
<polyline class="st1" points="874.9,585.7 889.8,570.9 904.6,585.7 889.8,600.5 "/>
<polyline class="st1" points="904.6,615.4 919.4,630.2 949.1,600.5 919.4,570.9 904.6,585.7 "/>
<path d="M766.8,451.5c-6.1,0-11.1,5-11.1,11.1s5,11.1,11.1,11.1c6.1,0,11.1-5,11.1-11.1C777.9,456.5,773,451.6,766.8,451.5z
	 M771.3,463.5c-1.7,0-3-1.3-3-3s1.3-3,3-3s3,1.3,3,3C774.3,462.2,772.9,463.5,771.3,463.5L771.3,463.5z"/>
<path d="M718.5,434.5c-3.9,0-7.1,3.2-7.1,7.1s3.2,7.1,7.1,7.1c3.9,0,7.1-3.2,7.1-7.1C725.6,437.7,722.5,434.5,718.5,434.5
	C718.5,434.5,718.5,434.5,718.5,434.5z M715.7,441.6c-1,0-1.8-0.8-1.8-1.8c0-1,0.8-1.8,1.8-1.8c1,0,1.8,0.8,1.8,1.8c0,0,0,0,0,0
	C717.5,440.8,716.7,441.6,715.7,441.6C715.7,441.6,715.7,441.6,715.7,441.6L715.7,441.6z"/>
<path class="st1" d="M303.8,518.7c-23.5,24.1-37.4,59.5-32.4,93.2c4.8,32.2,30.4,61.3,63.3,66.2c35,5.3,74.8-23.8,70.5-61.6
	c-2.9-25.4-31.4-33.2-52.9-27.1c-20.4,5.8-37.3,21.3-47,40.2c-20.4,39.5-5.1,86.5,22.4,118.3c32.5,37.6,83.6,53.1,132.2,46.9
	c39.8-5.2,77-25.6,103.6-55.5"/>
<path class="st1" d="M859.7,746.4v-0.5c0-21.5,17.4-38.9,38.9-38.9c21.5,0,38.9,17.4,38.9,38.9c0,3.3-0.4,6.7-1.3,9.9"/>
<path class="st1" d="M933.2,728.1c1.5-0.2,3-0.4,4.5-0.3c15.7-0.6,29,11.7,29.6,27.4s-11.7,29-27.4,29.6c-0.7,0-1.4,0-2.1,0"/>
<path class="st1" d="M859.7,746.4c-10.6,0.7-18.6,9.8-17.9,20.4c0.7,10.1,9.1,18,19.2,18"/>
<line class="st1" x1="880.6" y1="775.8" x2="880.6" y2="798.3"/>
<line class="st1" x1="899.4" y1="775.8" x2="899.4" y2="812.5"/>
<line class="st1" x1="918.2" y1="775.8" x2="918.2" y2="798.3"/>
<path class="st1" d="M448.7,269.5c-12.5,0-22.7-10.2-22.7-22.7c0-12.5,10.2-22.7,22.7-22.7c2.3,0,4.5,0.3,6.7,1"/>
<path class="st1" d="M512.2,232.1c10.1,3.3,15.6,14.1,12.3,24.2c-3.3,10.1-14.1,15.6-24.2,12.3c-2.6-0.8-5-2.2-7-4.1"/>
<path class="st1" d="M455.5,225.1c0.8-15.8,14.3-27.9,30.1-27.1c15.3,0.8,27.2,13.5,27.1,28.7c0,1.8-0.2,3.6-0.5,5.3"/>
<line class="st1" x1="448.8" y1="269.5" x2="452.6" y2="269.5"/>
<line class="st1" x1="464.7" y1="253.4" x2="464.7" y2="291.1"/>
<line class="st1" x1="481" y1="240.2" x2="481" y2="277.9"/>
<line class="st1" x1="739.7" y1="466.2" x2="751.2" y2="470.1"/>
<line class="st1" x1="734" y1="474.2" x2="745.5" y2="478.1"/>
<path d="M638.3,243c10.7,21.5-12.9,38.2-29.2,46.8c-7.7,4-15.9,7.1-24.4,9c1.3,1.7,2.3,3.6,3.1,5.5c1.5,3.8,3.2,8.5,3.2,10.7
	c-8.1,3.7-7.7,7.3-5.7,10.4c2.3,3.1,5.9,4.8,9.7,4.7c1.5,8.3,1,9.9,0.6,14.1c0-0.1-6.8-1.9-7.5-2.1c-13.5-4.2-29.2-12.2-32.7-27.3
	c-0.7-3.3-0.8-6.7-0.4-10c0.1-0.7,1.7-6.6,1.3-6.9c-0.4-0.3-0.7-0.7-1-1.1c-7.1-7.8-7.2-17.2-0.1-25c9.3-10.2,23.2-13.4,35.6-18.1
	c7.6-2.9,14.3-7.6,20.7-12.6c5.1-4,9.9-8.7,17.1-6.7l0.3,0.1C633.1,236,636.5,239.1,638.3,243z"/>
</svg>
