<svg xmlns="http://www.w3.org/2000/svg" xmlns:xlink="http://www.w3.org/1999/xlink" viewBox="0 0 180.51 224.23"><defs><style>.a{fill:#e4ebf7;}.b{fill:#fff;}.c{fill:#c3cddd;}.d{fill:url(#a);}.e{fill:url(#b);}.f{fill:#1b3151;}.g{fill:#23406d;}.h{fill:url(#c);}.i{fill:#f6613a;opacity:0.5;}.j{fill:#f49187;}.k{fill:#525559;}.l{fill:#959aa0;}.m{fill:#c2cad3;}.n{fill:#dfe6ed;}.o{fill:#feb19e;}.p{fill:#f2d972;}.q{fill:#ff856a;}.r{fill:url(#d);}.s{fill:#abdaf7;}.t{fill:#4e8fb7;}.u{fill:#70b2dd;}</style><linearGradient id="a" x1="191.21" y1="250.44" x2="211.18" y2="250.44" gradientUnits="userSpaceOnUse"><stop offset="0" stop-color="#3855e1"/><stop offset="1" stop-color="#5c7ef7"/></linearGradient><linearGradient id="b" x1="213.69" y1="252.48" x2="227.65" y2="252.48" xlink:href="#a"/><linearGradient id="c" x1="212.53" y1="156.98" x2="210.86" y2="93.15" gradientUnits="userSpaceOnUse"><stop offset="0" stop-color="#f79239"/><stop offset="1" stop-color="#f7c759"/></linearGradient><linearGradient id="d" x1="186.88" y1="73.35" x2="218.15" y2="73.35" gradientUnits="userSpaceOnUse"><stop offset="0" stop-color="#3f2323"/><stop offset="1" stop-color="#5e3434"/></linearGradient></defs><path class="a" d="M294.54,173.59c-.15.31-.31.61-.47.91-7.76,14.83-25.31,21.68-42.95,17.1-6.54-1.7-12.19-5-18.84-7.63-.57-.22-1.15-.43-1.74-.64-9.42-3.38-21.08-5-40,1.54-29.37,10.1-54.23,13.69-66.73-5.17-.16-.23-.31-.46-.45-.71a42.36,42.36,0,0,1-4.33-9.37c-3.45-10.39-.07-22.29,7.36-33.72.24-.36.48-.73.73-1.09a106.79,106.79,0,0,1,20.76-22.26c.88-.73,1.73-1.48,2.55-2.28a9.9,9.9,0,0,0,.75-.71,67.45,67.45,0,0,0,11.32-15.3c.15-.25.29-.5.43-.76,5.68-10.28,9.57-21.11,14.81-28.92.43-.63.87-1.25,1.33-1.85.2-.26.4-.52.61-.77a35.44,35.44,0,0,1,5.42-5.46c.23-.19.47-.38.7-.55a36.61,36.61,0,0,1,18.67-7.3l1.05-.1c10.81-.88,23,2.26,35.05,9.57.32.18.63.38.95.58a100.29,100.29,0,0,1,23,20.2l.68.8a141.13,141.13,0,0,1,18,27.94c.13.26.26.52.38.78,1.84,3.76,3.58,7.68,5.23,11.8.1.26.2.52.31.78,1.24,3.18,2.44,6.46,3.56,9.86.09.26.17.53.26.79q1.84,5.64,3.43,11.66C299.55,155.28,298.44,165.55,294.54,173.59Z" transform="translate(-117.72 -48.41)"/><path class="b" d="M293,131.65a80.48,80.48,0,0,1-24.86,4.23,49.63,49.63,0,0,1-22.63-5c-12.88-6.58-21.28-19.35-25-38-4.68-23.56-10.74-36.8-16-44.25l1.05-.1c5.24,7.65,11.15,21,15.76,44.19,3.64,18.37,11.9,31,24.54,37.4,14.22,7.26,32.19,5.54,46.85.72C292.8,131.12,292.88,131.39,293,131.65Z" transform="translate(-117.72 -48.41)"/><path class="b" d="M289.15,121a65.06,65.06,0,0,1-16,2.3c-6.32,0-11.56-1.38-15.79-4.1-8.73-5.64-13.36-17.1-14.16-35a221.93,221.93,0,0,0-2.59-26.05c.32.18.63.38.95.58A224.41,224.41,0,0,1,244,84.13c.79,17.64,5.3,28.88,13.79,34.36,7.15,4.63,17.37,5.21,31,1.73C288.94,120.48,289,120.74,289.15,121Z" transform="translate(-117.72 -48.41)"/><path class="b" d="M283.61,108.42a37,37,0,0,1-8.46,1.13c-4.72,0-8.23-1.34-10.5-4-5-5.91-3.12-17.11-.11-26.61l.68.8c-2.85,9.19-4.57,19.8.07,25.28,3.23,3.81,9.26,4.71,17.94,2.66C283.36,107.9,283.49,108.16,283.61,108.42Z" transform="translate(-117.72 -48.41)"/><path class="b" d="M294.54,173.59c-.15.31-.31.61-.47.91a88.22,88.22,0,0,1-11.29.71c-17.55,0-41.4-4.92-70.27-22.7-37.34-23-66.26-22.06-83.94-17.23l-2.14.62c.24-.36.48-.73.73-1.09l1.18-.34c17.85-4.87,47-5.82,84.6,17.31C248.78,173.85,276.78,176,294.54,173.59Z" transform="translate(-117.72 -48.41)"/><path class="b" d="M232.28,184c-.57-.22-1.15-.43-1.74-.64-11-11.73-27.45-22.94-49.69-22.28a105.77,105.77,0,0,0-57,18.65c-.16-.23-.31-.46-.45-.71a106.55,106.55,0,0,1,57.42-18.78C204.14,159.53,221.14,171.69,232.28,184Z" transform="translate(-117.72 -48.41)"/><path class="b" d="M202.22,100.16c-.8,8.75-5,14.47-12.19,16.54a30.42,30.42,0,0,1-8.45,1.08c-9.43,0-20.59-3.27-31.11-7.51a9.9,9.9,0,0,0,.75-.71c13.67,5.48,28.32,9.29,38.58,6.33,8.61-2.49,11-10,11.59-15.8,1.22-13.46-6.4-32.38-16.25-43.59.23-.19.47-.38.7-.55C195.91,67.28,203.49,86.25,202.22,100.16Z" transform="translate(-117.72 -48.41)"/><path class="b" d="M185.36,101.52a7.49,7.49,0,0,1-3.43.72c-5.21,0-12.57-3.69-19.39-8,.15-.25.29-.5.43-.76,8.31,5.27,17.39,9.62,22,7.27,7.39-3.75-1.28-27.08-5.87-38,.2-.26.4-.52.61-.77C184.34,72.92,193.55,97.36,185.36,101.52Z" transform="translate(-117.72 -48.41)"/><path class="a" d="M214.93,247.12c-38.63,0-70,3.89-70,8.69,0,1.8,4.38,3.47,11.88,4.85-1.52.81-2.35,1.68-2.35,2.58,0,4.11,17,7.43,37.85,7.43,19.07,0,34.83-2.76,37.46-6.36,31.48-.85,55.06-4.33,55.06-8.5C284.88,251,253.56,247.12,214.93,247.12Z" transform="translate(-117.72 -48.41)"/><ellipse class="a" cx="125.9" cy="221.99" rx="8.74" ry="2.24"/><path class="c" d="M253.76,255.93c0,3-19.27,5.49-43,5.49s-43-2.46-43-5.49,19.27-5.49,43-5.49S253.76,252.9,253.76,255.93Z" transform="translate(-117.72 -48.41)"/><path class="d" d="M211.18,248.93s-2.88,4.35-4.67,7.69a4.67,4.67,0,0,1-4.13,2.46H191.24s-.56-4.33,3-6l.23-.09a6.78,6.78,0,0,1,2.74-.59s4.06-5.37,1.63-8.68l9.43-1.87A10.06,10.06,0,0,1,211.18,248.93Z" transform="translate(-117.72 -48.41)"/><path class="a" d="M203.24,259.08H190.89s-.21-4.33,3.36-6l.23-.09C195.7,252.46,201.55,250.67,203.24,259.08Z" transform="translate(-117.72 -48.41)"/><path class="e" d="M213.69,254.1s3.27-3.75,3.33-8.22h8.72s2.95,8.73,1.53,13.19H216.81Z" transform="translate(-117.72 -48.41)"/><path class="a" d="M223.32,259.07s-1.85-5.41-7.65-5.25-6.12,5.25-6.12,5.25Z" transform="translate(-117.72 -48.41)"/><path class="f" d="M192.46,153.41s-11.59,37.5-10.33,47.45,14.94,44.44,14.94,44.44l13.38-4.18s-4.49-25.4-8.14-38.72c0,0,10.8-16.54,12.76-24.39s-1.56-21.45-1.56-21.45Z" transform="translate(-117.72 -48.41)"/><path class="g" d="M206.94,156.7l7.85,90.42h12.48s5.6-39,2.66-55.37c0,0,6.73-20.33,4.49-40.66Z" transform="translate(-117.72 -48.41)"/><path class="h" d="M233,137.21l1.42,13.88a17.22,17.22,0,0,1-3.42,3.22c-3.37,2.5-9.37,5.6-18.55,5.72-15.56.22-20-6.62-20-6.62l.82-8,.55-5.45-1.12-2-9.18-16.67a52.17,52.17,0,0,1,5.3-17.67c3.2-6,10.18-7.85,13.87-8.43a21,21,0,0,1,2.38-.26,25,25,0,0,0,10,0,18.57,18.57,0,0,1,8,.5c4.55,1.18,9.32,3.77,12.06,7.77,4.51,6.63,4.79,29.23,4.79,29.23l-7.32,1.26Z" transform="translate(-117.72 -48.41)"/><path class="i" d="M234.42,151.09a17.22,17.22,0,0,1-3.42,3.22,53.72,53.72,0,0,1-37.72-8.91l.55-5.45-1.12-2,2.49-9.85,1.05-16.71,4.93,19.14s14.32-1.72,16.9-4.53,4.24-14.61,4.24-14.61l2,17.35,8.52,8.2.16.31Z" transform="translate(-117.72 -48.41)"/><path class="j" d="M184.86,119.83a2.85,2.85,0,0,0,0-2.49A1.42,1.42,0,0,0,183,117s-1.37-2.7-5.15-1.3-7.12,5.26.8,10.27S184.86,119.83,184.86,119.83Z" transform="translate(-117.72 -48.41)"/><path class="k" d="M180.83,117.87,177.66,108a.79.79,0,0,0-.95-.51h0a.78.78,0,0,0-.52,1l3.59,9.57A.71.71,0,0,0,180.83,117.87Z" transform="translate(-117.72 -48.41)"/><path class="l" d="M202.08,144.72H184.74a1.24,1.24,0,0,1-1.2-.9l-7-22.69a1.27,1.27,0,0,1,1.21-1.64h16.59a1.25,1.25,0,0,1,1.19.85l7.77,22.7A1.28,1.28,0,0,1,202.08,144.72Z" transform="translate(-117.72 -48.41)"/><path class="m" d="M199.91,144.72H184.74a1.24,1.24,0,0,1-1.2-.9l-7-22.69a1.27,1.27,0,0,1,1.21-1.64h12.8a3.5,3.5,0,0,1,3.33,2.38L201.11,143A1.27,1.27,0,0,1,199.91,144.72Z" transform="translate(-117.72 -48.41)"/><path class="n" d="M190.53,132.69c.26,1.43-.3,2.72-1.24,2.89s-1.91-.85-2.16-2.28.29-2.72,1.23-2.89S190.27,131.26,190.53,132.69Z" transform="translate(-117.72 -48.41)"/><path class="o" d="M204.21,129.86s-3.86-4.35-6.87-4.42l1.33,3.72a17.37,17.37,0,0,1-7.36,2.31c-4,.21-6,1.19-2.94,2.38s3.85,4.14,6.79,5.54,9.75-2.24,9.75-2.24,10.86,3.29,20.32,3.57,16.2-2.66,14.72-8.34-11.28-6.66-18.15-4.84S204.21,129.86,204.21,129.86Z" transform="translate(-117.72 -48.41)"/><path class="p" d="M223.1,95.38c-1.46,4-7,13.76-16.46,12.08-6.76-1.21-5.53-9.31-3.94-12.32a21,21,0,0,1,2.38-.26,25,25,0,0,0,10,0A18.57,18.57,0,0,1,223.1,95.38Z" transform="translate(-117.72 -48.41)"/><path class="o" d="M218.44,94.49s-1.37,9.94-9,10.25c-4.12.18-5.13-2-5.18-4.12a10,10,0,0,1,.56-3.4,3,3,0,0,0,1.38-1.08,3.68,3.68,0,0,0,.7-1.73,5.45,5.45,0,0,0,.05-1.48c-.11-1.21.82-2.54,2.07-3.75A30.71,30.71,0,0,1,214.93,85h.27A49.74,49.74,0,0,0,217,92.89a16.15,16.15,0,0,0,.64,1.6Z" transform="translate(-117.72 -48.41)"/><path class="q" d="M204.3,100.62a10,10,0,0,1,.56-3.4,3,3,0,0,0,1.38-1.08,3.68,3.68,0,0,0,.7-1.73,5.45,5.45,0,0,0,.05-1.48c-.11-1.21.82-2.54,2.07-3.75A30.71,30.71,0,0,1,214.93,85h.27C215.94,98.14,207.43,100.28,204.3,100.62Z" transform="translate(-117.72 -48.41)"/><path class="r" d="M216.81,79.34s2.15-2.47,1-8-5.46-4.57-5.46-4.57.79-3.52-4.73-3.94S197.14,66,194,64.25s-5.05-.79-4.05,3.84c0,0-2.78-2.74-3.05,1.57s3.68,6.57,3.68,6.57-.15,6.16,7,7.73l17-1.36Z" transform="translate(-117.72 -48.41)"/><path class="o" d="M195.2,78.13s3.92,17.32,9.78,18.08c5.12.67,9.18-6.27,9.88-8.69a26,26,0,0,0,.65-3.29s2.77,0,2.56-3.42-3-5.1-3.68-.11c0,0-2.74-.42-2.89-5.73,0,0-3.68,2.79-7.26,2.53S201.88,75,201.88,75,200.25,77.5,195.2,78.13Z" transform="translate(-117.72 -48.41)"/><path class="s" d="M248.9,75.55A6.28,6.28,0,1,0,238.17,80c.88.88,1.52.56,1.85,1.76l.5,1.87h4.12l.48-1.77c.33-1.23,1-.92,1.9-1.82A6.23,6.23,0,0,0,248.9,75.55Z" transform="translate(-117.72 -48.41)"/><path class="b" d="M241,75.71a1.11,1.11,0,1,0,0,2.21,1.07,1.07,0,0,0,.63-.2v7h.47V76.82A1.11,1.11,0,0,0,241,75.71Zm0,1.74a.64.64,0,0,1-.64-.63.64.64,0,1,1,1.27,0A.63.63,0,0,1,241,77.45Z" transform="translate(-117.72 -48.41)"/><path class="b" d="M244.26,76.67a1.11,1.11,0,0,0-1.1,1.11l-.06,6.91h.48l0-6a1.07,1.07,0,0,0,.63.2,1.11,1.11,0,1,0,0-2.21Zm0,1.74a.63.63,0,1,1,.63-.63A.63.63,0,0,1,244.26,78.41Z" transform="translate(-117.72 -48.41)"/><path class="t" d="M242.59,86h0a2.14,2.14,0,0,1-2.14-2.15v-.5h4.29v.5A2.15,2.15,0,0,1,242.59,86Z" transform="translate(-117.72 -48.41)"/><path class="u" d="M244.75,84.32h-4.33a.17.17,0,0,1-.16-.17h0a.16.16,0,0,1,.16-.16h4.33a.16.16,0,0,1,.16.16h0A.17.17,0,0,1,244.75,84.32Z" transform="translate(-117.72 -48.41)"/><path class="u" d="M244.78,85h-4.32a.18.18,0,0,1-.17-.17h0a.17.17,0,0,1,.17-.16h4.32a.17.17,0,0,1,.17.16h0A.18.18,0,0,1,244.78,85Z" transform="translate(-117.72 -48.41)"/><path class="s" d="M235,75.27h-1.65A.32.32,0,0,1,233,75h0a.31.31,0,0,1,.32-.31H235a.31.31,0,0,1,.31.31h0A.31.31,0,0,1,235,75.27Z" transform="translate(-117.72 -48.41)"/><path class="s" d="M235.5,72.32,234,71.56a.31.31,0,0,1-.13-.43h0a.31.31,0,0,1,.42-.14l1.46.77a.32.32,0,0,1,.14.43h0A.32.32,0,0,1,235.5,72.32Z" transform="translate(-117.72 -48.41)"/><path class="s" d="M235.61,77.55l-1.46.76a.32.32,0,0,0-.14.43h0a.32.32,0,0,0,.43.13l1.46-.76a.31.31,0,0,0,.13-.43h0A.3.3,0,0,0,235.61,77.55Z" transform="translate(-117.72 -48.41)"/><path class="s" d="M237.28,69.88l-1.17-1.17a.33.33,0,0,1,0-.45h0a.33.33,0,0,1,.45,0l1.17,1.17a.33.33,0,0,1,0,.45h0A.33.33,0,0,1,237.28,69.88Z" transform="translate(-117.72 -48.41)"/><path class="s" d="M239.3,68.32l-.57-1.54a.32.32,0,0,1,.18-.41h0a.31.31,0,0,1,.41.19l.57,1.55a.31.31,0,0,1-.19.4h0A.31.31,0,0,1,239.3,68.32Z" transform="translate(-117.72 -48.41)"/><path class="s" d="M250.31,75.06H252a.32.32,0,0,0,.32-.32h0a.32.32,0,0,0-.32-.32h-1.64a.32.32,0,0,0-.32.32h0A.32.32,0,0,0,250.31,75.06Z" transform="translate(-117.72 -48.41)"/><path class="s" d="M249.8,72.11l1.46-.76a.32.32,0,0,0,.14-.43h0a.32.32,0,0,0-.43-.14l-1.46.77a.31.31,0,0,0-.14.42h0A.32.32,0,0,0,249.8,72.11Z" transform="translate(-117.72 -48.41)"/><path class="s" d="M249.69,77.33l1.47.77a.31.31,0,0,1,.13.42h0a.32.32,0,0,1-.43.14l-1.46-.76a.33.33,0,0,1-.13-.43h0A.31.31,0,0,1,249.69,77.33Z" transform="translate(-117.72 -48.41)"/><path class="s" d="M248,69.66l1.17-1.16a.33.33,0,0,0,0-.45h0a.33.33,0,0,0-.45,0l-1.17,1.17a.31.31,0,0,0,0,.44h0A.31.31,0,0,0,248,69.66Z" transform="translate(-117.72 -48.41)"/><path class="s" d="M246,68.11l.56-1.54a.31.31,0,0,0-.18-.41h0a.31.31,0,0,0-.41.19l-.57,1.54a.31.31,0,0,0,.19.41h0A.32.32,0,0,0,246,68.11Z" transform="translate(-117.72 -48.41)"/><path class="s" d="M242.3,67.62V66a.32.32,0,0,1,.32-.32h0a.32.32,0,0,1,.32.32v1.64a.32.32,0,0,1-.32.32h0A.32.32,0,0,1,242.3,67.62Z" transform="translate(-117.72 -48.41)"/><rect class="s" x="153.31" y="58.31" width="16.44" height="16.44" rx="2.6"/><path class="t" d="M283.82,109.33l.07.07c-.05.48-.07,1.3-.07,2.48l-.07.06h-.37l-.06-.07-.09-.72q-.06-.59-.09-.72a.44.44,0,0,0-.12-.19,1.3,1.3,0,0,0-.51-.09,9.54,9.54,0,0,0-1,0h-1.49c0,1.18-.06,1.87-.06,2v6.14a10.87,10.87,0,0,0,.05,1.15.68.68,0,0,0,.11.35.65.65,0,0,0,.28.14,6.35,6.35,0,0,0,1.06.09l.06,0v.39l-.06.06-2.25-.06-2.25.06-.06-.06v-.39l.06,0a8.21,8.21,0,0,0,1-.08.66.66,0,0,0,.32-.12.56.56,0,0,0,.14-.32,6,6,0,0,0,.06-1.09v-6.26c0-.08,0-.77-.06-2h-1.17q-.73,0-1.26,0c-.35,0-.55.07-.61.16a3.27,3.27,0,0,0-.15.85l-.08.72-.07.07h-.36l-.07-.06c0-1.27,0-2.09-.07-2.48l.07-.07c.92,0,2.44.07,4.57.07S282.94,109.38,283.82,109.33Z" transform="translate(-117.72 -48.41)"/><path class="u" d="M138.37,104.3a.53.53,0,0,1-.44-.22.54.54,0,0,1,.11-.76,17,17,0,0,1,1.79-1.22.54.54,0,1,1,.54.94s-.65.38-1.68,1.15A.48.48,0,0,1,138.37,104.3Z" transform="translate(-117.72 -48.41)"/><path class="u" d="M140.71,160.63c-.49,0-1,0-1.5,0a.55.55,0,0,1,.06-1.09c.51,0,1,0,1.48,0a20.46,20.46,0,0,0,2.64-.16.56.56,0,0,1,.61.48.55.55,0,0,1-.47.61A19.79,19.79,0,0,1,140.71,160.63Zm-5.65-.61-.12,0a20.63,20.63,0,0,1-4.11-1.35.55.55,0,0,1,.45-1,19.19,19.19,0,0,0,3.9,1.29.54.54,0,0,1,.41.65A.55.55,0,0,1,135.06,160Zm12.47-.61a.55.55,0,0,1-.21-1,12.73,12.73,0,0,0,3.45-2.09.55.55,0,0,1,.77.06.54.54,0,0,1-.06.77,13.71,13.71,0,0,1-3.74,2.27A.52.52,0,0,1,147.53,159.41Zm-20-2.93a.53.53,0,0,1-.35-.13,16,16,0,0,1-2.95-3.2.55.55,0,0,1,.14-.76.54.54,0,0,1,.76.13,14.49,14.49,0,0,0,2.75,3,.55.55,0,0,1,.07.77A.55.55,0,0,1,127.48,156.48Zm26.39-2.43a.52.52,0,0,1-.29-.09.54.54,0,0,1-.17-.75,19.08,19.08,0,0,0,1.8-3.68.53.53,0,0,1,.7-.33.54.54,0,0,1,.32.7,19.36,19.36,0,0,1-1.9,3.9A.54.54,0,0,1,153.87,154.05Zm-31.19-4.4a.55.55,0,0,1-.51-.36,21.43,21.43,0,0,1-1.13-4.17.55.55,0,0,1,.44-.63.56.56,0,0,1,.64.44,20.79,20.79,0,0,0,1.07,4,.56.56,0,0,1-.32.71A.43.43,0,0,1,122.68,149.65Zm34.16-3.46h-.1a.54.54,0,0,1-.43-.64,40.29,40.29,0,0,0,.58-4.13.54.54,0,0,1,.6-.49.53.53,0,0,1,.49.59,39.71,39.71,0,0,1-.6,4.24A.55.55,0,0,1,156.84,146.19Zm-35.66-4.82a.54.54,0,0,1-.55-.53c0-.28,0-.55,0-.83,0-1.12,0-2.28.16-3.46a.55.55,0,0,1,1.09.1c-.1,1.15-.16,2.27-.16,3.36,0,.27,0,.54,0,.8a.55.55,0,0,1-.53.56Zm36.47-3.58h0a.55.55,0,0,1-.54-.56c0-.32,0-.64,0-1,0-1,0-2.12-.08-3.23a.55.55,0,0,1,1.1,0c0,1.13.07,2.23.07,3.28,0,.33,0,.65,0,1A.55.55,0,0,1,157.65,137.79ZM121.91,133h-.1a.55.55,0,0,1-.44-.64c.25-1.36.57-2.76.95-4.16a.55.55,0,1,1,1.06.28c-.37,1.38-.69,2.75-.93,4.08A.56.56,0,0,1,121.91,133Zm35.41-3.63a.55.55,0,0,1-.55-.5c0-.52-.09-1-.14-1.56a21.2,21.2,0,0,1-.1-2.12v-.6a.54.54,0,0,1,.57-.53.55.55,0,0,1,.53.56c0,.19,0,.38,0,.57a19.38,19.38,0,0,0,.1,2c.05.51.1,1,.14,1.57a.55.55,0,0,1-.5.59Zm-33.23-4.54a.57.57,0,0,1-.18,0,.53.53,0,0,1-.34-.69c.14-.4.28-.81.43-1.21.34-.93.71-1.87,1.11-2.77a.55.55,0,0,1,.72-.29.56.56,0,0,1,.28.72c-.39.89-.75,1.8-1.09,2.71l-.42,1.19A.54.54,0,0,1,124.09,124.8Zm33.51-3.86-.12,0a.54.54,0,0,1-.41-.65,20.7,20.7,0,0,1,1.39-4.11.55.55,0,0,1,1,.47,19,19,0,0,0-1.31,3.88A.55.55,0,0,1,157.6,120.94Zm-30.12-3.86a.59.59,0,0,1-.26-.07.56.56,0,0,1-.22-.75c.7-1.24,1.45-2.47,2.25-3.63a.55.55,0,0,1,.91.62,38.94,38.94,0,0,0-2.2,3.55A.57.57,0,0,1,127.48,117.08Zm33.75-3.68a.58.58,0,0,1-.36-.14.55.55,0,0,1,0-.77,9.34,9.34,0,0,1,3.59-2.61.55.55,0,0,1,.4,1,8.33,8.33,0,0,0-3.18,2.32A.52.52,0,0,1,161.23,113.4Zm11.19-.63a.61.61,0,0,1-.36-.13,9.11,9.11,0,0,0-3.44-1.94.54.54,0,1,1,.29-1,10.09,10.09,0,0,1,3.86,2.16.54.54,0,0,1,.06.77A.55.55,0,0,1,172.42,112.77Zm-40.15-2.64a.56.56,0,0,1-.35-.13.55.55,0,0,1-.07-.77c.93-1.1,1.92-2.15,2.93-3.13a.54.54,0,0,1,.77,0,.55.55,0,0,1,0,.77,39.21,39.21,0,0,0-2.85,3A.56.56,0,0,1,132.27,110.13Z" transform="translate(-117.72 -48.41)"/><path class="u" d="M176.48,117.72a.56.56,0,0,1-.47-.26c-.38-.61-.76-1.19-1.15-1.72a.55.55,0,0,1,.89-.64c.4.55.8,1.15,1.19,1.78a.54.54,0,0,1-.18.75A.51.51,0,0,1,176.48,117.72Z" transform="translate(-117.72 -48.41)"/><path class="u" d="M152.91,95l-5.43,3.63A1.33,1.33,0,1,1,147,98l5.56-3.72L139,95.65l2,2.94-3.78,2.54,3.58,5.36,3.79-2.54,2.11,3.15Z" transform="translate(-117.72 -48.41)"/><rect class="t" x="134.86" y="102.51" width="8.34" height="2.31" transform="translate(30.11 -117.95) rotate(56.2)"/><path class="u" d="M206.94,144.49a.55.55,0,0,1-.53-.41.54.54,0,0,1,.39-.66,18,18,0,0,1,2.14-.38.56.56,0,0,1,.61.48.55.55,0,0,1-.47.61,18,18,0,0,0-2,.34A.34.34,0,0,1,206.94,144.49Z" transform="translate(-117.72 -48.41)"/><path class="u" d="M253.17,162.24c-.86,0-1.73,0-2.57-.11a.56.56,0,0,1-.5-.6.54.54,0,0,1,.6-.49,27.76,27.76,0,0,0,4.18.05.54.54,0,0,1,.58.51.55.55,0,0,1-.51.58C254.36,162.22,253.76,162.24,253.17,162.24Zm6-.65a.56.56,0,0,1-.54-.43.55.55,0,0,1,.42-.65,24.21,24.21,0,0,0,4-1.27.53.53,0,0,1,.71.29.55.55,0,0,1-.29.72,23.93,23.93,0,0,1-4.15,1.32Zm-12.7-.16-.13,0a27.39,27.39,0,0,1-4.13-1.37.55.55,0,0,1-.29-.72.53.53,0,0,1,.71-.29,26.4,26.4,0,0,0,4,1.32.55.55,0,0,1-.13,1.08Zm20.5-3.19a.56.56,0,0,1-.45-.23.55.55,0,0,1,.14-.76,16.23,16.23,0,0,0,3.06-2.76.55.55,0,0,1,.77-.05.54.54,0,0,1,.06.77,17.4,17.4,0,0,1-3.27,2.93A.5.5,0,0,1,266.94,158.24Zm-28.32-.15a.58.58,0,0,1-.3-.09,24.42,24.42,0,0,1-3.43-2.7.56.56,0,0,1,0-.78.54.54,0,0,1,.77,0,21.72,21.72,0,0,0,3.27,2.58.56.56,0,0,1,.16.76A.54.54,0,0,1,238.62,158.09Zm-6.28-5.75a.54.54,0,0,1-.39-.16,29,29,0,0,0-3.15-2.75.55.55,0,1,1,.66-.88,32.34,32.34,0,0,1,3.27,2.86.55.55,0,0,1-.39.93Zm40-.53a.55.55,0,0,1-.5-.77,14.15,14.15,0,0,0,1.1-3.81l0-.14a.54.54,0,0,1,.61-.46.55.55,0,0,1,.47.62l0,.14a15.46,15.46,0,0,1-1.18,4.1A.55.55,0,0,1,272.39,151.81Zm-46.85-4.58a.58.58,0,0,1-.26-.06,27.06,27.06,0,0,0-3.82-1.69.55.55,0,1,1,.36-1,29.31,29.31,0,0,1,4,1.75.56.56,0,0,1,.22.74A.54.54,0,0,1,225.54,147.23Zm-8-2.82h-.1a27.44,27.44,0,0,0-4.16-.46.55.55,0,0,1-.53-.56.56.56,0,0,1,.57-.53,29.73,29.73,0,0,1,4.32.47.54.54,0,0,1,.44.64A.55.55,0,0,1,217.51,144.41Zm56.25-.95a.56.56,0,0,1-.55-.53,29.18,29.18,0,0,0-.45-4.16.54.54,0,1,1,1.07-.2,30.2,30.2,0,0,1,.48,4.32.56.56,0,0,1-.53.57Zm-1.46-8.39a.55.55,0,0,1-.52-.4c-.37-1.25-.81-2.57-1.35-4a.55.55,0,0,1,.32-.7.56.56,0,0,1,.71.32c.54,1.47,1,2.8,1.37,4.09a.55.55,0,0,1-.37.68Zm-2.93-8a.55.55,0,0,1-.51-.34l-1.08-2.57-.58-1.36a.55.55,0,1,1,1-.43l.58,1.37c.36.85.72,1.7,1.08,2.57a.56.56,0,0,1-.5.76Zm-3.28-7.9a.56.56,0,0,1-.51-.35c-.58-1.51-1-2.85-1.39-4.08a.55.55,0,0,1,.37-.68.55.55,0,0,1,.68.37c.35,1.21.79,2.51,1.37,4a.56.56,0,0,1-.32.71A.64.64,0,0,1,266.09,119.15Zm-2.27-8.21a.54.54,0,0,1-.54-.48,18.55,18.55,0,0,1-.15-2.32,15.55,15.55,0,0,1,.13-2.07.55.55,0,0,1,.62-.47.54.54,0,0,1,.47.61,13.5,13.5,0,0,0-.13,1.93,18.54,18.54,0,0,0,.14,2.19.54.54,0,0,1-.47.61Zm1.22-8.31a.53.53,0,0,1-.24-.06.54.54,0,0,1-.24-.73,13.51,13.51,0,0,1,2.61-3.57.55.55,0,0,1,.77,0,.53.53,0,0,1,0,.77,12.8,12.8,0,0,0-2.41,3.29A.54.54,0,0,1,265,102.63Zm5.84-6.1a.57.57,0,0,1-.46-.24.56.56,0,0,1,.15-.76c.87-.59,1.77-1.15,2.63-1.68l1-.62a.55.55,0,0,1,.75.17.56.56,0,0,1-.17.76l-1,.62c-.86.53-1.74,1.07-2.6,1.65A.49.49,0,0,1,270.88,96.53ZM278,91.76a.55.55,0,0,1-.36-1,8.07,8.07,0,0,0,2.34-3.18.55.55,0,1,1,1,.39,9.12,9.12,0,0,1-2.64,3.61A.5.5,0,0,1,278,91.76Z" transform="translate(-117.72 -48.41)"/><path class="u" d="M280.76,84.08a.54.54,0,0,1-.53-.46,15.58,15.58,0,0,0-.49-2,.54.54,0,0,1,.35-.69.55.55,0,0,1,.69.35,14.61,14.61,0,0,1,.52,2.13.54.54,0,0,1-.45.62Z" transform="translate(-117.72 -48.41)"/><path class="u" d="M279,77.52l.11,2.9a1.16,1.16,0,0,1-.8,1.15L274,83a.46.46,0,0,1-.6-.47l.93-15a.46.46,0,0,1,.78-.29l10.86,11a.46.46,0,0,1-.17.76l-3.22,1.11a1.16,1.16,0,0,1-1.19-.26Z" transform="translate(-117.72 -48.41)"/><path class="t" d="M180.83,97.76h0a1.38,1.38,0,0,1-1.89-.47l-3.51-5.76,2.36-1.44,3.51,5.77A1.39,1.39,0,0,1,180.83,97.76Z" transform="translate(-117.72 -48.41)"/><path class="u" d="M179.35,83.75a6,6,0,1,0-2,8.25A6,6,0,0,0,179.35,83.75Zm-3,6.62a4.1,4.1,0,1,1,1.38-5.64A4.1,4.1,0,0,1,176.34,90.37Z" transform="translate(-117.72 -48.41)"/><path class="s" d="M160,64.18V79a1.74,1.74,0,0,1-1.74,1.74H138.82A1.74,1.74,0,0,1,137.09,79V64.18a1.73,1.73,0,0,1,1.73-1.73h19.44A1.73,1.73,0,0,1,160,64.18Z" transform="translate(-117.72 -48.41)"/><path class="u" d="M160,74.67V79a1.74,1.74,0,0,1-1.74,1.74H138.82A1.74,1.74,0,0,1,137.09,79v-4s4.9-7,7.93-7c3.53,0,5.89,8,7.67,8s2.23-3.3,4.54-3.3A3.7,3.7,0,0,1,160,74.67Z" transform="translate(-117.72 -48.41)"/><path class="t" d="M156.7,68.24a2.34,2.34,0,1,1-2.33-2.34A2.33,2.33,0,0,1,156.7,68.24Z" transform="translate(-117.72 -48.41)"/></svg>