<svg id="e61e41d3-792c-4f35-bfdc-15852484c0c0" data-name="Layer 5" xmlns="http://www.w3.org/2000/svg" xmlns:xlink="http://www.w3.org/1999/xlink" viewBox="0 0 253.14 137.26"><defs><linearGradient id="ffbb234a-b396-4850-ae0a-3a8601f66c6c" x1="238.71" y1="442.26" x2="234.71" y2="387.92" gradientUnits="userSpaceOnUse"><stop offset="0" stop-color="#3855e1"/><stop offset="1" stop-color="#5c7ef7"/></linearGradient><linearGradient id="fa65dd88-dce1-40eb-a4ff-fa4c2ee04eb2" x1="191.67" y1="356.93" x2="235.16" y2="356.93" gradientUnits="userSpaceOnUse"><stop offset="0" stop-color="#3f2323"/><stop offset="1" stop-color="#5e3434"/></linearGradient></defs><path d="M344.29,430.59c-.08.33-.15.65-.24,1A54,54,0,0,1,336,448.48l-20.53-.06h-1.08l-110.76-.31h-1.29l-21.46-.06h-1.39l-68.16-.19s-17.7-20.82,6-40.3c11.11-9.12,26-7.71,37.41-8.89.49-.06,1-.11,1.46-.18,12.05-1.57,19.48-6.92,12.63-33.17a35.28,35.28,0,0,1-1.1-10.81c0-.5.06-1,.11-1.5,2.27-24.36,29-45.39,59.76-32.94.56.22,1.12.46,1.68.71A73.21,73.21,0,0,1,250,335.05c5.81,5.54,10.87,10.55,15.36,15.1l1.51,1.54c21.62,22.08,29.08,32.77,40.63,39.05l.93.49a57,57,0,0,0,11.57,4.3A43.2,43.2,0,0,1,332.68,401l.87.6C342.88,408.19,347.09,418.31,344.29,430.59Z" transform="translate(-92 -316.36)" fill="#e4ebf7"/><path d="M312.91,335.05c-18-13.65-41.29-10.45-36.6,0s25,37.36,39.33,32.66S324.82,344.1,312.91,335.05Z" transform="translate(-92 -316.36)" fill="#e4ebf7"/><path d="M333.55,401.62c-15.26,12.25-29,18.42-41.08,18.42a33,33,0,0,1-8.75-1.16c-18.06-5-31.72-25.77-40.59-61.83-3.93-16-9.52-28-15.53-37,.56.22,1.12.46,1.68.71,5.73,8.91,11,20.64,14.82,36,8.78,35.69,22.2,56.25,39.88,61.11,13.67,3.75,30-1.93,48.7-16.9Z" transform="translate(-92 -316.36)" fill="#fff"/><path d="M308.43,391.23q-6.9,6.7-13.35,6.72a12.35,12.35,0,0,1-2.89-.35c-12.89-3.12-21.57-26.54-26.83-47.45l1.51,1.54c5.26,20.19,13.62,42.05,25.56,44.94,4.74,1.14,9.79-.83,15.07-5.89Z" transform="translate(-92 -316.36)" fill="#fff"/><path d="M203.63,448.11h-1.29c8.33-10.25,12.49-21.24,12.22-32.6-.5-21-16-38.93-31.13-47.37a51.08,51.08,0,0,1-15.7-13.64c0-.5.06-1,.11-1.5a50.21,50.21,0,0,0,16.08,14.27c15.38,8.58,31.13,26.81,31.64,48.22C215.77,424.31,213.36,435.83,203.63,448.11Z" transform="translate(-92 -316.36)" fill="#fff"/><path d="M180.88,448.05h-1.39c5.07-6,8.36-12.63,8.15-19.14-.28-8.64-6.51-15.9-18.51-21.57a87,87,0,0,1-14.39-8.67c.49-.06,1-.11,1.46-.18a85.58,85.58,0,0,0,13.36,7.94c12.37,5.85,18.79,13.4,19.08,22.44C188.86,435.62,185.67,442.21,180.88,448.05Z" transform="translate(-92 -316.36)" fill="#fff"/><path d="M344.29,430.59c-.08.33-.15.65-.24,1-7.42-.62-13.7.83-18.77,4.35a29.3,29.3,0,0,0-9.81,12.5h-1.08a30.53,30.53,0,0,1,10.32-13.32C330,431.42,336.57,429.91,344.29,430.59Z" transform="translate(-92 -316.36)" fill="#fff"/><path d="M142.55,384.64s-2,2.17-3,11.67S130.45,410.52,124,411h-.13l0-.12-.23-.9L121.93,404s-2-16.62,19.89-19.23Z" transform="translate(-92 -316.36)" fill="#abdaf7"/><path d="M125.61,448.48s.41-48.79-7.86-64.65S92,365.27,92,365.27s18.7,4.88,25.75,23.71,4.88,59.5,4.88,59.5Z" transform="translate(-92 -316.36)" fill="#abdaf7"/><path d="M122.9,439.26c-26.87-.16-27.24-30-27.24-31.64v-.07C101.9,416.87,124,416.07,122.9,439.26Z" transform="translate(-92 -316.36)" fill="#abdaf7"/><path d="M122.9,439.26c-26.87-.16-27.24-30-27.24-31.64,0,1.3,1.09,21.08,13.15,24.48C121.27,435.6,122.9,439.26,122.9,439.26Z" transform="translate(-92 -316.36)" fill="#70b2dd"/><path d="M148.51,426c-3.11,8.53,1.49,17.21-6.36,22.5h-13.7S127.64,429.38,148.51,426Z" transform="translate(-92 -316.36)" fill="#abdaf7"/><path d="M148.51,426c-3.11,8.53,1.49,17.21-6.36,22.5H137C143.67,442.72,144.49,432.37,148.51,426Z" transform="translate(-92 -316.36)" fill="#70b2dd"/><path d="M142.55,384.64s-2,2.17-3,11.67S130.45,410.52,124,411l-.17-.11-.91-.65c.23-.07.46-.16.68-.25,13.34-5,13.46-17.54,18.24-25.29Z" transform="translate(-92 -316.36)" fill="#70b2dd"/><path d="M121.92,397.58l-.09,0c-1.35.3-17.11,3.55-20.39-12.07-3.21-15.32-8.71-19.72-9.38-20.22l0,0C122.13,370.08,121.92,397.58,121.92,397.58Z" transform="translate(-92 -316.36)" fill="#abdaf7"/><path d="M121.92,397.58l-.09,0c-1.35.3-17.11,3.55-20.39-12.07-3.21-15.32-8.71-19.72-9.38-20.22C106.94,373.19,99.76,395.16,121.92,397.58Z" transform="translate(-92 -316.36)" fill="#70b2dd"/><rect x="12.87" y="132.11" width="239.6" height="5.15" fill="#70b2dd"/><path d="M295.24,431.85s2.89-3.52,1.44-7.13c-.9-2.27-2.44-2.17-5.78-6.24s-6.23-14.18,4.34-12.56,13.55.18,11.65-2.62-8.32-6.95-5.83-12.47,12.07-3.61,21.37-2.8,6.24-3.25,11.93-.54,5.69,18.25-7.41,17.26-15.54-.3-15,4.5,2.8,13-5.69,9.91-6.16.93-4.61,4.27c2,4.27-2.89,8.42-2.89,8.42Z" transform="translate(-92 -316.36)" fill="#fff"/><path d="M294.24,394.18c-2.76-.55-5.69-5.06-8-1.09-1.89,3.21,3.89,8,8.31,6.06C298,397.65,297.86,394.9,294.24,394.18Z" transform="translate(-92 -316.36)" fill="#fff"/><path d="M306.89,446.49v-2.17a6.38,6.38,0,0,0,6.11-4.6l.37-1.26a2.54,2.54,0,0,0-.41-2.23,2.52,2.52,0,0,0-2-1h-1.69v-2.17h1.69a4.71,4.71,0,0,1,4.52,6l-.36,1.26A8.58,8.58,0,0,1,306.89,446.49Z" transform="translate(-92 -316.36)" fill="#70b2dd"/><path d="M310.55,432l-.31,2.18-1.64,11.27a3.58,3.58,0,0,1-3.53,3.07H297a3.57,3.57,0,0,1-3.54-3.08l-1.58-11.26-.3-2.19a1.9,1.9,0,0,1,1.88-2.17h15.22A1.91,1.91,0,0,1,310.55,432Z" transform="translate(-92 -316.36)" fill="#abdaf7"/><path d="M310.55,432l-.31,2.18H291.87l-.3-2.19a1.9,1.9,0,0,1,1.88-2.17h15.22A1.91,1.91,0,0,1,310.55,432Z" transform="translate(-92 -316.36)" fill="#70b2dd"/><path d="M276.31,448.48s2.56-1.94,1.62-10.71-1.62-15-1.62-15l-19.18,2.1,2.17,17.55Z" transform="translate(-92 -316.36)" fill="#f29c8b"/><path d="M259.53,429.38l2.55,19.1H199.2s-6.24-46.45,7-57.17c5.83-4.71,13.26-6.83,19.76-7.74h0a64.68,64.68,0,0,1,15.1-.33s1.57,0,4,.21c5.41.48,15.06,2.05,20.77,7.3,8.26,7.59,12.06,38.08,12.06,38.08S270.67,430.46,259.53,429.38Z" transform="translate(-92 -316.36)" fill="url(#ffbb234a-b396-4850-ae0a-3a8601f66c6c)"/><path d="M259.53,429.37l-2.87-.41-9-23.31s.31,26.4-8,34.25S210.4,444,210.4,444l-2.93-38.31-6.29,19.62,4.16,23.21h56.74Z" transform="translate(-92 -316.36)" fill="#3150bc"/><path d="M245.1,383.45c-.56,5.27-2.11,12.94-6.46,16.1-6.92,5-13.22,2.92-15.93-2.23s.54-12.6,1.42-13.22l1.87-.53h0a64.68,64.68,0,0,1,15.1-.33S242.69,383.23,245.1,383.45Z" transform="translate(-92 -316.36)" fill="#78aaf9"/><path d="M199.2,448.48h-9.13A9.26,9.26,0,0,1,181,437.37l3.83-18.84Z" transform="translate(-92 -316.36)" fill="#f29c8b"/><path d="M198.05,415.71s1.43-3.08,0-4.36a4.91,4.91,0,0,0-3.19-1.22s-.88-3.05-6.37-2.51-6,5.69-2.94,8.13Z" transform="translate(-92 -316.36)" fill="#feb19e"/><path d="M194.52,412.36l-6.12-16.29a1.41,1.41,0,0,0-1.68-.86h0a1.41,1.41,0,0,0-.94,1.89l6.51,15.74Z" transform="translate(-92 -316.36)" fill="#525559"/><path d="M235.11,360.86s.54-9.28-1.83-12.19-4.9-1.83-4.9-1.83,0-4.48-5.74-5.76a19,19,0,0,0-17.14,4.33c-4.88,4.48-12.06,2.15-12.06,5.31s4.47,4.34,4.47,4.34-6.17-.43-6.23,2.28,4.4,7.45,10.43,7.32c0,0,1.36,8.87,10,8.6l13.14-4.54,8.75-4.6Z" transform="translate(-92 -316.36)" fill="url(#fa65dd88-dce1-40eb-a4ff-fa4c2ee04eb2)"/><path d="M241.12,383.24s-1.94,17.33-11.21,16.18c-5.13-.64-5.46-5.16-5-8.11a14.19,14.19,0,0,1,.87-3.27l-4.61-6.42,13-13.91C236.2,374.28,238.43,379.89,241.12,383.24Z" transform="translate(-92 -316.36)" fill="#feb19e"/><path d="M224.89,391.31a14.19,14.19,0,0,1,.87-3.27l-4.61-6.42,13-13.91C239.24,385.85,229.61,390.25,224.89,391.31Z" transform="translate(-92 -316.36)" fill="#ff856a"/><path d="M206.24,365.54s9.37,20.72,19.16,20c8.22-.64,10.79-14.14,8.76-17.8,0,0,3.66.34,2.85-3.93s-4.81-8.54-5.56,0c0,0-4.79,1.58-6.32-8.72,0,0-4.7,7.68-8.22,8.58s-2.53-2.62-2.53-2.62S212.21,364.45,206.24,365.54Z" transform="translate(-92 -316.36)" fill="#feb19e"/><path d="M231.42,448.48H196.64A2.81,2.81,0,0,1,194,446.7l-1.13-2.86-9.54-24.29a2.81,2.81,0,0,1,2.61-3.84h34.38a2.82,2.82,0,0,1,2.6,1.75L234,444.61A2.81,2.81,0,0,1,231.42,448.48Z" transform="translate(-92 -316.36)" fill="#1b3151"/><path d="M229,448.48H196.64A2.81,2.81,0,0,1,194,446.7l-1.13-2.86-9.54-24.29a2.81,2.81,0,0,1,2.61-3.84H217.9a2.85,2.85,0,0,1,2.6,1.75l11.07,27.15A2.81,2.81,0,0,1,229,448.48Z" transform="translate(-92 -316.36)" fill="#23406d"/><path d="M209.45,430.57c.6,2.09,0,4.1-1.39,4.49s-3-1-3.56-3.08,0-4.1,1.4-4.49S208.86,428.48,209.45,430.57Z" transform="translate(-92 -316.36)" fill="#4e79b7"/><path d="M231.42,448.48H196.64A2.81,2.81,0,0,1,194,446.7l-1.13-2.86c17.17-1.79,23.67-19.41,25.82-28l0-.13h1.59a2.82,2.82,0,0,1,2.6,1.75L234,444.61A2.81,2.81,0,0,1,231.42,448.48Z" transform="translate(-92 -316.36)" fill="#1b3151" opacity="0.49"/><path d="M276.31,448.48s-3.93-15-43.23-22.63c0,0-3-6.92-9.22-7.32l.95,4.33a46.86,46.86,0,0,1-13.35.61c-6.44-.81-1.76,5.76,2.58,9s5.21,5.28,11.85,3.86,8.2-1.7,8.2-1.7,8.47,9,17.82,13.83Z" transform="translate(-92 -316.36)" fill="#feb19e"/><circle cx="166.27" cy="338.98" r="15.77" transform="translate(-293.84 106.55) rotate(-76.72)" fill="#70b2dd"/><circle cx="74.27" cy="22.61" r="11.6" fill="#abdaf7"/><path d="M172.8,338.45h-5.72v-7.72a1.1,1.1,0,1,0-2.2,0v9.75h7.92a1,1,0,0,0,0-2Z" transform="translate(-92 -316.36)" fill="#70b2dd"/></svg>