<svg xmlns="http://www.w3.org/2000/svg" xmlns:xlink="http://www.w3.org/1999/xlink" viewBox="0 0 258.41 155.15"><defs><linearGradient id="ef8ab539-e1c7-41f1-b5d1-319e53728065" x1="563.98" y1="197.48" x2="554.98" y2="142.81" gradientUnits="userSpaceOnUse"><stop offset="0" stop-color="#f79239"/><stop offset="1" stop-color="#f7c759"/></linearGradient><linearGradient id="effe49c8-91a9-42be-9fdd-49074418d848" x1="529.38" y1="97.08" x2="571.66" y2="97.08" gradientUnits="userSpaceOnUse"><stop offset="0" stop-color="#3f2323"/><stop offset="1" stop-color="#5e3434"/></linearGradient></defs><g style="isolation:isolate"><g id="aaa93936-1ade-47b9-87e9-02698bf28935" data-name="Layer 4"><path d="M673.46,162.78l-.21,1.18c-5,28.28-19.75,40.71-19.75,40.71H432.65s-13.51-24.83-7.57-46.5c.09-.33.18-.66.28-1,3.91-12.9,14.94-24.52,40.14-28.89,5.42-.94,10.41-1.84,15-2.7l1.91-.37c16-3.06,27.14-5.79,35.62-8.91h0l1.83-.7C537.11,108.84,543,100,558.44,82.13q1.8-2.09,3.84-4.09c.3-.3.6-.59.91-.87a85.4,85.4,0,0,1,31.31-18.7l1-.32c15.27-4.84,31.86-4.91,45.89,3.56.53.32,1.06.65,1.59,1C654.05,70,663.41,83,669,103.5,675.68,128,676,147.62,673.46,162.78Z" transform="translate(-416.5 -54.85)" fill="#e4ebf7"/><path d="M651.21,108.54c-3.18,16-14.11,28.92-32.48,38.33-36.1,18.47-50.47,41.58-56.15,57.8h-1.05l0-.09c5.69-16.41,20.15-39.89,56.71-58.6,18.09-9.26,28.84-21.92,32-37.63,3.21-16.2-2.23-33.19-8.88-46.64.53.32,1.06.65,1.59,1C649.34,76.07,654.35,92.67,651.21,108.54Z" transform="translate(-416.5 -54.85)" fill="#fff"/><path d="M673.46,162.78l-.21,1.18a397.87,397.87,0,0,1-50.31,18.7c-16.54,5-28.15,12.41-34.65,22h-1.2c6.55-10.07,18.47-17.77,35.56-23A396.22,396.22,0,0,0,673.46,162.78Z" transform="translate(-416.5 -54.85)" fill="#fff"/><path d="M596.8,74.52c0,17.43-5.13,41.16-29.42,55.29-10.29,6-21.85,8.24-33.43,8.24-15.72,0-31.47-4.15-44.13-8.78-3.21-1.17-6.33-2.41-9.31-3.67l1.91-.37c25,10.31,58.86,18.61,84.46,3.72,23.88-13.89,28.91-37.27,28.92-54.43a103.48,103.48,0,0,0-1.3-16l1-.32A104.76,104.76,0,0,1,596.8,74.52Z" transform="translate(-416.5 -54.85)" fill="#fff"/><path d="M560.66,108.29c-4.87,6.43-13.49,9.65-25.75,9.65a99.53,99.53,0,0,1-16.86-1.62l1.83-.7c20.11,3.23,33.53.58,40-7.93,5.78-7.61,5.15-18.94,2.42-29.65.3-.3.6-.59.91-.87C566.1,88.25,566.83,100.16,560.66,108.29Z" transform="translate(-416.5 -54.85)" fill="#fff"/><path d="M543.57,204.67h-1c-2.12-8.37-6-17.41-13.22-24.75-11.75-12-29.59-17.06-53-14.93-21.45,1.94-38.61-.35-51.22-6.82.09-.33.18-.66.28-1,12.46,6.45,29.49,8.73,50.85,6.8,23.76-2.15,41.86,3,53.83,15.24C537.42,186.79,541.43,196.09,543.57,204.67Z" transform="translate(-416.5 -54.85)" fill="#fff"/><path d="M457.63,195.25s5.75-12.87-7.5-22.87-16.25-17.26-16.25-17.26-4.47,23.49,3.63,34.63v16.13h19.61Z" transform="translate(-416.5 -54.85)" fill="#4e8fb7"/><path d="M445.77,205s-.65-9,8.31-15,8.84-12.1,8.84-12.1,6.88,17.23-1.82,27.12Z" transform="translate(-416.5 -54.85)" fill="#70b2dd"/><path d="M447.76,205s1.39-12.12-9.93-18.62-13.69-14.88-13.69-14.88-6.25,21.12,4,33.5Z" transform="translate(-416.5 -54.85)" fill="#abdaf7"/><path d="M517.88,180.75a80.77,80.77,0,0,1-13.61,16.66v6.05h13.52a112.16,112.16,0,0,0,12.83-8.84S533.43,175.92,517.88,180.75Z" transform="translate(-416.5 -54.85)" fill="#f49187"/><path d="M602.88,192.25s-.63,12-3.63,12.75S584,194.62,584,194.62l-1.4-5.31,9.11-6.64S602.51,186,602.88,192.25Z" transform="translate(-416.5 -54.85)" fill="#f49187"/><path d="M602.88,192.25c-2.88-5.5-20.63-1.5-20.63-1.5l12.63,12.71H538.12c1.88-6.54.76-22.46.76-22.46s0,.23,0,.35a17.76,17.76,0,0,1-4.21,9.77c-.24,3.26-4,3.5-4,3.5a22.1,22.1,0,0,0-1.93-7.21c-3.69-7.63-10.81-6.66-10.81-6.66-.76-4,3.5-5,3.5-5s5.24-30.5,12.87-36.5,20.07-9,20.07-9l12.81-.87s25.12,5,30.12,13.62,4.13,41.25,4.13,41.25C605.38,187.5,602.88,192.25,602.88,192.25Z" transform="translate(-416.5 -54.85)" fill="url(#ef8ab539-e1c7-41f1-b5d1-319e53728065)"/><path d="M582.25,190.75s2.13-18.5-4.75-34.63c0,0,1.12,24.5-8.88,31.38s-27,5.5-31.24,17.5l37.5-.33Z" transform="translate(-416.5 -54.85)" fill="#f6613a" opacity="0.5"/><path d="M538.83,181.35a17.76,17.76,0,0,1-4.21,9.77c-.24,3.26-4,3.5-4,3.5a22.1,22.1,0,0,0-1.93-7.21,21.17,21.17,0,0,0,5.56-9.24c2.65-8.76,1-18.28.84-19A161.07,161.07,0,0,1,538.83,181.35Z" transform="translate(-416.5 -54.85)" fill="#f6613a" opacity="0.5"/><path d="M566,197.12s14.12-9.87,26.12-5.87,11,12.25,7.13,13.75H569.33Z" transform="translate(-416.5 -54.85)" fill="#feb19e"/><path d="M569.77,129.83s-2.94,16.5-11.69,16.59c-7.64.07-5.87-9.95-5.3-12.5.08-.38.14-.59.14-.59l-3.17-12.08,16.83-8.91.34,1.85v0Z" transform="translate(-416.5 -54.85)" fill="#feb19e"/><path d="M552.78,133.92c.08-.38.14-.59.14-.59l-3.17-12.08,16.83-8.91.34,1.85v0C569.13,133.92,553.09,133.92,552.78,133.92Z" transform="translate(-416.5 -54.85)" fill="#ff856a"/><path d="M568.81,106.44a29.46,29.46,0,0,0,2.75-9.82c.5-5.12-.94-6.31-3.06-6.31,0,0-1.12-5.81-3.81-7.81s-13.63.94-17.81,3.44-7.26-4.39-9.19-4.1-2.31,5.6-.81,8c0,0-3.5-1.93-4.07-3.93s-4.56,1.62-3.12,9.06,4.75,8.37,4.75,8.37.62,7.88,7.06,8.75,23.44-.62,23.44-.62Z" transform="translate(-416.5 -54.85)" fill="url(#effe49c8-91a9-42be-9fdd-49074418d848)"/><path d="M538.88,103.62s3.12,21.38,11,24.13,14.45-5.66,15.45-7.91,1.42-7,1.42-7,2.69.62,3-4.13-3.81-7.56-4.81.63c0,0-3.86-2.13-2.69-9.38a16.92,16.92,0,0,1-10.58,4.17c-6.17,0-.84-4.17-.84-4.17A16.91,16.91,0,0,1,538.88,103.62Z" transform="translate(-416.5 -54.85)" fill="#feb19e"/><rect x="120.25" y="147.4" width="51.33" height="2.75" fill="#abdaf7"/><rect x="155.75" y="147.4" width="15.83" height="2.75" fill="#70b2dd"/><path d="M579.42,202.33s-4.54-6.77-11.35-6.66c-5.16.08-5.35,3.33-5.35,3.33a3.09,3.09,0,0,0-3.47,3.33Z" transform="translate(-416.5 -54.85)" fill="#ffc7ae"/><path d="M515.58,201.92s.25-3.75-1.41-4.25a3,3,0,0,0-2.92.91s-1.25-5.5-5.92-5.66-13.08,4.58-7.91,9Z" transform="translate(-416.5 -54.85)" fill="#feb19e"/><path d="M527.58,203.46A1.54,1.54,0,0,1,526,205H498a1.54,1.54,0,0,1,0-3.08H526A1.54,1.54,0,0,1,527.58,203.46Z" transform="translate(-416.5 -54.85)" fill="#70b2dd"/><path d="M519.25,203.46a1.54,1.54,0,0,1-1.54,1.54H498a1.54,1.54,0,0,1,0-3.08h19.75A1.54,1.54,0,0,1,519.25,203.46Z" transform="translate(-416.5 -54.85)" fill="#abdaf7"/><path d="M512,199.44l-5-16.27a1.41,1.41,0,0,0-1.71-.95h0a1.42,1.42,0,0,0-.95,1.86l5.95,15.8A1.28,1.28,0,0,0,512,199.44Z" transform="translate(-416.5 -54.85)" fill="#525559"/><path d="M476.94,159c.54,3.28-.64,6.2-2.64,6.53s-4.06-2.06-4.6-5.34.64-6.21,2.64-6.54S476.39,155.68,476.94,159Z" transform="translate(-416.5 -54.85)" fill="#fff" stroke="#f230db" stroke-miterlimit="10"/><path d="M507.32,187.88H454a5.72,5.72,0,0,1-5.3-3.61c-6.24-15.58-10.85-30.73-12.72-45.16a5.71,5.71,0,0,1,5.66-6.44h54a5.69,5.69,0,0,1,5.63,4.86c2,13.37,6,27.7,11.38,42.75A5.7,5.7,0,0,1,507.32,187.88Z" transform="translate(-416.5 -54.85)" fill="#90c6e0"/><path d="M505.16,187.88H454a5.72,5.72,0,0,1-5.3-3.61c-6.24-15.58-10.85-30.73-12.72-45.16a5.71,5.71,0,0,1,5.66-6.44h51.87a5.71,5.71,0,0,1,5.64,4.86c2,13.37,6,27.7,11.37,42.75A5.69,5.69,0,0,1,505.16,187.88Z" transform="translate(-416.5 -54.85)" fill="#abdaf7"/><path d="M502.53,205H482.05a7,7,0,0,1-6.59-4.7l-6.13-21.42c3.39,0,6.72,0,10,0h3.26l4.88,16.66a5.52,5.52,0,0,0,4.32,3.55l7.66,1.2a3.17,3.17,0,0,1,2.6,2.45Z" transform="translate(-416.5 -54.85)" fill="#90c6e0"/><path d="M491.78,199.09l-1.73-.16a6.5,6.5,0,0,1-5.47-4l-5.26-16h3.26l4.88,16.66A5.52,5.52,0,0,0,491.78,199.09Z" transform="translate(-416.5 -54.85)" fill="#90c6e0" opacity="0.35" style="mix-blend-mode:multiply"/><path d="M476.52,159.67c.76,3.17-.21,6.12-2.17,6.59s-4.16-1.72-4.92-4.89.22-6.11,2.17-6.58S475.77,156.51,476.52,159.67Z" transform="translate(-416.5 -54.85)" fill="#fff"/><rect y="150.15" width="243.5" height="5" fill="#70b2dd"/><rect x="189.5" y="150.15" width="54" height="5" fill="#4e8fb7"/><polygon points="218 129.73 215.67 115.23 208.25 116.15 211 130.56 218 129.73" fill="#70b2dd"/><path d="M634.29,183.25l2.56-17.9a1,1,0,0,1,1.17-.85h0a1,1,0,0,1,.83,1.15L636,184.17h1.08L640.9,170a1,1,0,0,1,1.25-.73h0a1,1,0,0,1,.75,1.26l-3.57,13.66-3.58,1.66Z" transform="translate(-416.5 -54.85)" fill="#4e8fb7"/><path d="M641.83,183.25v18.46a3,3,0,0,1-3,3H628.21a3,3,0,0,1-3-3V183.25Z" transform="translate(-416.5 -54.85)" fill="#abdaf7"/><rect x="208.75" y="128.4" width="16.58" height="4.33" fill="#90c6e0"/><circle cx="208.64" cy="38.42" r="23.59" fill="#70b2dd" opacity="0.35" style="mix-blend-mode:multiply"/><circle cx="624.75" cy="91.56" r="22.2" transform="translate(-392.72 230.42) rotate(-26.2)" fill="#70b2dd"/><circle cx="624.75" cy="91.56" r="16.33" transform="translate(24.45 640.78) rotate(-81.41)" fill="#abdaf7"/><path d="M634,90.81H625.9V79.94a1.56,1.56,0,0,0-3.11,0V93.67H634a1.43,1.43,0,0,0,0-2.86Z" transform="translate(-416.5 -54.85)" fill="#70b2dd"/></g></g></svg>